<svg width="16" height="16" viewBox="0 0 16 16" fill="none" xmlns="http://www.w3.org/2000/svg">
<path d="M7.99998 1.33337C4.32665 1.33337 1.33331 4.32671 1.33331 8.00004C1.33331 11.6734 4.32665 14.6667 7.99998 14.6667C11.6733 14.6667 14.6666 11.6734 14.6666 8.00004C14.6666 4.32671 11.6733 1.33337 7.99998 1.33337ZM10.7066 9.19337C10.6066 9.29337 10.48 9.34004 10.3533 9.34004C10.2266 9.34004 10.1 9.29337 9.99998 9.19337L7.99998 7.19337L5.99998 9.19337C5.80665 9.38671 5.48665 9.38671 5.29331 9.19337C5.09998 9.00004 5.09998 8.68004 5.29331 8.48671L7.64665 6.13337C7.83998 5.94004 8.15998 5.94004 8.35331 6.13337L10.7066 8.48671C10.9 8.68671 10.9 9.00004 10.7066 9.19337Z" fill="#20BF6B"/>
</svg>
