<svg width="16" height="16" viewBox="0 0 16 16" fill="none" xmlns="http://www.w3.org/2000/svg">
<path d="M7.99998 14.6666C4.32665 14.6666 1.33331 11.6733 1.33331 7.99996C1.33331 4.32663 4.32665 1.33329 7.99998 1.33329C11.6733 1.33329 14.6666 4.32663 14.6666 7.99996C14.6666 11.6733 11.6733 14.6666 7.99998 14.6666ZM10.7066 6.80663C10.6066 6.70663 10.48 6.65996 10.3533 6.65996C10.2266 6.65996 10.1 6.70663 9.99998 6.80663L7.99998 8.80663L5.99998 6.80663C5.80665 6.61329 5.48665 6.61329 5.29331 6.80663C5.09998 6.99996 5.09998 7.31996 5.29331 7.51329L7.64665 9.86663C7.83998 10.06 8.15998 10.06 8.35331 9.86663L10.7066 7.51329C10.9 7.31329 10.9 6.99996 10.7066 6.80663Z" fill="#EB3B5A"/>
</svg>
