<svg width="40" height="40" viewBox="0 0 40 40" fill="none" xmlns="http://www.w3.org/2000/svg">
<path fill-rule="evenodd" clip-rule="evenodd" d="M17.0254 0.222649C10.4081 1.26023 4.97091 5.27639 2.0379 11.2926C-0.677242 16.8623 -0.679421 23.1226 2.03209 28.7218C6.5301 38.0099 17.4404 42.3592 27.1017 38.7154C31.6352 37.0056 35.7781 33.2586 37.951 28.9033C40.3649 24.0644 40.6338 17.8534 38.651 12.7308C36.9354 8.29818 33.224 4.23645 28.9172 2.07777C25.3475 0.288553 20.9649 -0.39518 17.0254 0.222649ZM24.4101 6.40784C24.4711 6.56706 23.7663 9.26877 22.8435 12.4118C21.9208 15.5547 21.1975 18.1577 21.2362 18.1963C21.2747 18.235 21.9515 18.0674 22.74 17.8242C23.5285 17.5809 24.1959 17.4039 24.2227 17.4309C24.313 17.5211 23.6311 19.5564 23.459 19.7111C23.3654 19.7949 22.628 20.0504 21.8202 20.2786L20.3513 20.6936L19.388 23.9814C18.8582 25.7899 18.387 27.3716 18.3411 27.4963C18.2752 27.6747 19.4771 27.7232 23.9737 27.7232C28.4375 27.7232 29.7326 27.7748 29.8852 27.9589C30.1325 28.2566 29.1076 31.8786 28.6806 32.2167C28.3128 32.5077 11.2157 32.5515 11.2157 32.2614C11.2157 32.161 11.8284 30.021 12.5773 27.5057C13.3262 24.9905 13.939 22.8732 13.939 22.8007C13.939 22.7283 13.2774 22.8723 12.4686 23.1206C11.6599 23.369 10.966 23.54 10.9266 23.5006C10.8872 23.4612 11.0216 22.9362 11.2249 22.3338L11.5947 21.2386L13.1786 20.7633L14.7623 20.288L16.7069 13.6793C17.7765 10.0444 18.7329 6.85628 18.8324 6.5943L19.0134 6.11826H21.6563C23.9078 6.11826 24.3153 6.16111 24.4101 6.40784Z" fill="#345D9D"/>
</svg>
