<svg width="16" height="16" viewBox="0 0 16 16" fill="none" xmlns="http://www.w3.org/2000/svg">
<path d="M13.9333 6.56667L14.3267 13.16C14.34 13.34 14.2533 13.46 14.2067 13.5133C14.1533 13.5733 14.04 13.6667 13.8533 13.6667H12.0333L13.4733 6.56667H13.9333ZM14.6667 4L14.66 4.01333C14.6733 4.17333 14.66 4.34 14.62 4.50667L9.70666 13.5267C9.54666 14.2 8.94666 14.6667 8.25333 14.6667H13.8533C14.7133 14.6667 15.3933 13.94 15.3267 13.08L14.6667 4Z" fill="white"/>
<path d="M7.63333 1.49339C7.69999 1.22672 7.53333 0.953389 7.26666 0.886722C6.99999 0.826722 6.72666 0.986722 6.65999 1.25339L6.32666 2.63339H7.35333L7.63333 1.49339Z" fill="white"/>
<path d="M12.0333 1.47337C12.0933 1.20004 11.92 0.940036 11.6467 0.880036C11.38 0.820036 11.1133 0.993369 11.0533 1.2667L10.7533 2.6467H11.78L12.0333 1.47337Z" fill="white"/>
<path d="M14.5467 3.55338C14.3267 3.02004 13.8067 2.64004 13.1667 2.64004H11.78L11.4067 4.36671C11.3533 4.60004 11.1467 4.76004 10.92 4.76004C10.8867 4.76004 10.8467 4.76004 10.8133 4.74671C10.5467 4.68671 10.3733 4.42004 10.4267 4.15338L10.7533 2.63338H7.35334L6.93334 4.36671C6.88001 4.59338 6.67334 4.74671 6.44668 4.74671C6.40668 4.74671 6.36668 4.74004 6.32668 4.73338C6.06001 4.66671 5.89334 4.40004 5.96001 4.12671L6.32001 2.62671H4.96668C4.31334 2.62671 3.73334 3.05338 3.54001 3.68004L0.733343 12.7134C0.440009 13.68 1.15334 14.6667 2.16001 14.6667H10.92C11.6133 14.6667 12.2133 14.2 12.3733 13.5267L14.62 4.50671C14.66 4.34004 14.6733 4.17338 14.66 4.01338C14.6467 3.85338 14.6133 3.69338 14.5467 3.55338ZM9.80001 11.1667H4.46668C4.19334 11.1667 3.96668 10.94 3.96668 10.6667C3.96668 10.3934 4.19334 10.1667 4.46668 10.1667H9.80001C10.0733 10.1667 10.3 10.3934 10.3 10.6667C10.3 10.94 10.0733 11.1667 9.80001 11.1667ZM10.4667 8.50004H5.13334C4.86001 8.50004 4.63334 8.27338 4.63334 8.00004C4.63334 7.72671 4.86001 7.50004 5.13334 7.50004H10.4667C10.74 7.50004 10.9667 7.72671 10.9667 8.00004C10.9667 8.27338 10.74 8.50004 10.4667 8.50004Z" fill="white"/>
</svg>
