<svg width="16" height="16" viewBox="0 0 16 16" fill="none" xmlns="http://www.w3.org/2000/svg">
<path d="M10.76 1.97336L4.73999 3.97336C0.69332 5.3267 0.69332 7.53336 4.73999 8.88003L6.52665 9.47336L7.11999 11.26C8.46665 15.3067 10.68 15.3067 12.0267 11.26L14.0333 5.2467C14.9267 2.5467 13.46 1.07336 10.76 1.97336ZM10.9733 5.56003L8.43999 8.1067C8.33999 8.2067 8.21332 8.25336 8.08665 8.25336C7.95999 8.25336 7.83332 8.2067 7.73332 8.1067C7.53999 7.91336 7.53999 7.59336 7.73332 7.40003L10.2667 4.85336C10.46 4.66003 10.78 4.66003 10.9733 4.85336C11.1667 5.0467 11.1667 5.3667 10.9733 5.56003Z" fill="white"/>
</svg>
